<?xml version="1.0" encoding="UTF-8"?>
<svg xmlns="http://www.w3.org/2000/svg" version="1.1" viewBox="0 0 146.8 41.7">
  <defs>
    <style>
      .cls-1 {
        fill: #f04e23;
      }
    </style>
  </defs>
  <!-- Generator: Adobe Illustrator 28.7.1, SVG Export Plug-In . SVG Version: 1.2.0 Build 142)  -->
  <g>
    <g id="OBJECTS">
      <g>
        <path class="cls-1" d="M131.5,28.2c-6.2,0-11.2-7.4-11.2-7.4,0,0,5-7.4,11.2-7.4s15.3,7.4,15.3,7.4c0,0-9.1,7.4-15.3,7.4Z"/>
        <g>
          <g>
            <path class="cls-1" d="M121.9,15.2c-3.8,4.5-12.7,4-12.7,4,0,0-2.7-7.8,1.1-12.2,3.8-4.5,15.2-6.9,15.2-6.9,0,0,.2,10.7-3.6,15.2Z"/>
            <path class="cls-1" d="M121.9,26.5c-3.8-4.5-12.7-4-12.7-4,0,0-2.7,7.8,1.1,12.2,3.8,4.5,15.2,6.9,15.2,6.9,0,0,.2-10.7-3.6-15.2Z"/>
          </g>
          <g>
            <path class="cls-1" d="M102.9,15.2c-3.8,4.5-12.7,4-12.7,4,0,0-2.7-7.8,1.1-12.2,3.8-4.5,15.2-6.9,15.2-6.9,0,0,.2,10.7-3.6,15.2Z"/>
            <path class="cls-1" d="M102.9,26.5c-3.8-4.5-12.7-4-12.7-4,0,0-2.7,7.8,1.1,12.2,3.8,4.5,15.2,6.9,15.2,6.9,0,0,.2-10.7-3.6-15.2Z"/>
          </g>
          <g>
            <path class="cls-1" d="M83.9,15.2c-3.8,4.5-12.7,4-12.7,4,0,0-2.7-7.8,1.1-12.2,3.8-4.5,15.2-6.9,15.2-6.9,0,0,.2,10.7-3.6,15.2Z"/>
            <path class="cls-1" d="M83.9,26.5c-3.8-4.5-12.7-4-12.7-4,0,0-2.7,7.8,1.1,12.2,3.8,4.5,15.2,6.9,15.2,6.9,0,0,.2-10.7-3.6-15.2Z"/>
          </g>
          <g>
            <path class="cls-1" d="M64.9,15.2c-3.8,4.5-12.7,4-12.7,4,0,0-2.7-7.8,1.1-12.2,3.8-4.5,15.2-6.9,15.2-6.9,0,0,.2,10.7-3.6,15.2Z"/>
            <path class="cls-1" d="M64.9,26.5c-3.8-4.5-12.7-4-12.7-4,0,0-2.7,7.8,1.1,12.2,3.8,4.5,15.2,6.9,15.2,6.9,0,0,.2-10.7-3.6-15.2Z"/>
          </g>
          <g>
            <path class="cls-1" d="M45.9,15.2c-3.8,4.5-12.7,4-12.7,4,0,0-2.7-7.8,1.1-12.2,3.8-4.5,15.2-6.9,15.2-6.9,0,0,.2,10.7-3.6,15.2Z"/>
            <path class="cls-1" d="M45.9,26.5c-3.8-4.5-12.7-4-12.7-4,0,0-2.7,7.8,1.1,12.2,3.8,4.5,15.2,6.9,15.2,6.9,0,0,.2-10.7-3.6-15.2Z"/>
          </g>
        </g>
        <path class="cls-1" d="M26.1,32.4c.3-1.7.2-3.4-.2-5.1-.5-2.1-1.6-4.3-3.5-5.3l8.6-.2v-1.9l-16.6-.4c.3,0,.6-.2.9-.3,2.2-.8,3.5-3.2,4-5.5.4-1.7.6-3.4.2-5.1-.2-1.2-.7-2.4-1.5-3.3,0,2.5-1.2,5-2.9,6.8-1.4,1.6-3.4,2.7-4.3,4.6-.4.8-.6,1.8-.5,2.7l-8.5-.2c-.9,0-1.7.8-1.7,1.7s.8,1.7,1.7,1.7l15.2-.4c0,.7.2,1.5.5,2.2.9,1.9,2.9,3.1,4.3,4.6,1.7,1.9,2.8,4.3,2.9,6.8.7-1,1.2-2.1,1.5-3.3Z"/>
      </g>
    </g>
  </g>
</svg>