<?xml version="1.0" encoding="UTF-8"?>
<svg xmlns="http://www.w3.org/2000/svg" version="1.1" xmlns:xlink="http://www.w3.org/1999/xlink" viewBox="0 0 650 165">
  <defs>
    <style>
      .cls-1 {
        fill: #217c3d;
      }

      .cls-2 {
        fill: url(#linear-gradient-13);
      }

      .cls-3 {
        fill: #1c6b36;
      }

      .cls-4 {
        fill: url(#linear-gradient-10);
      }

      .cls-5 {
        fill: url(#linear-gradient-12);
      }

      .cls-6 {
        fill: url(#linear-gradient-4);
      }

      .cls-7 {
        fill: url(#linear-gradient-3);
      }

      .cls-8 {
        fill: url(#linear-gradient-5);
      }

      .cls-9 {
        fill: url(#linear-gradient-8);
      }

      .cls-10 {
        fill: #fec75e;
      }

      .cls-11 {
        fill: #16743b;
      }

      .cls-12 {
        fill: #f3ab34;
        font-family: Gilroy-Medium, Gilroy;
        font-size: 16.2px;
        font-weight: 500;
      }

      .cls-13 {
        fill: url(#linear-gradient-14);
      }

      .cls-14 {
        fill: #fff;
        font-family: Gilroy-ExtraBold, Gilroy;
        font-size: 15px;
        font-weight: 700;
        letter-spacing: 0em;
      }

      .cls-15 {
        fill: #a3ce45;
      }

      .cls-16 {
        fill: url(#linear-gradient-7);
      }

      .cls-17 {
        fill: url(#linear-gradient-9);
      }

      .cls-18 {
        fill: url(#linear-gradient-11);
      }

      .cls-19 {
        fill: url(#linear-gradient-6);
      }

      .cls-20 {
        fill: url(#linear-gradient-2);
        opacity: .7;
      }

      .cls-21 {
        fill: url(#linear-gradient);
      }

      .cls-22 {
        fill: #54aa53;
      }

      .cls-23 {
        letter-spacing: .3em;
      }

      .cls-24 {
        letter-spacing: 0em;
      }
    </style>
    <linearGradient id="linear-gradient" x1="79.2" y1="-28.8" x2="79.2" y2="159.8" gradientUnits="userSpaceOnUse">
      <stop offset=".2" stop-color="#ecbc09"/>
      <stop offset=".4" stop-color="#ee8133"/>
      <stop offset=".7" stop-color="#f3ab34"/>
    </linearGradient>
    <linearGradient id="linear-gradient-2" x1="77.9" y1="71.4" x2="77.9" y2="116.3" xlink:href="#linear-gradient"/>
    <linearGradient id="linear-gradient-3" x1="165.9" y1="71.9" x2="616.7" y2="71.9" gradientUnits="userSpaceOnUse">
      <stop offset="0" stop-color="#fff"/>
      <stop offset=".4" stop-color="#cddc2d"/>
      <stop offset=".7" stop-color="#71b84a"/>
      <stop offset="1" stop-color="#54aa53"/>
    </linearGradient>
    <linearGradient id="linear-gradient-4" x1="167.6" x2="618.3" xlink:href="#linear-gradient-3"/>
    <linearGradient id="linear-gradient-5" x1="169.2" y1="71.8" x2="619.9" y2="71.8" xlink:href="#linear-gradient-3"/>
    <linearGradient id="linear-gradient-6" x1="169.2" y1="71.8" x2="619.9" y2="71.8" xlink:href="#linear-gradient-3"/>
    <linearGradient id="linear-gradient-7" x1="169.2" x2="619.9" xlink:href="#linear-gradient-3"/>
    <linearGradient id="linear-gradient-8" x1="168.6" y1="71.9" x2="619.4" y2="71.9" xlink:href="#linear-gradient-3"/>
    <linearGradient id="linear-gradient-9" x1="170.5" y1="71.8" x2="621.3" y2="71.8" xlink:href="#linear-gradient-3"/>
    <linearGradient id="linear-gradient-10" x1="169.3" y1="72.3" x2="620" y2="72.3" xlink:href="#linear-gradient-3"/>
    <linearGradient id="linear-gradient-11" x1="165.9" y1="95.5" x2="419.2" y2="95.5" xlink:href="#linear-gradient-3"/>
    <linearGradient id="linear-gradient-12" x1="170.3" y1="85.5" x2="621.1" y2="85.5" xlink:href="#linear-gradient-3"/>
    <linearGradient id="linear-gradient-13" x1="170.3" y1="95" x2="621.1" y2="95" xlink:href="#linear-gradient-3"/>
    <linearGradient id="linear-gradient-14" x1="170.3" y1="72.2" x2="621.1" y2="72.2" xlink:href="#linear-gradient-3"/>
  </defs>
  <!-- Generator: Adobe Illustrator 28.7.1, SVG Export Plug-In . SVG Version: 1.2.0 Build 142)  -->
  <g>
    <g id="Layer_1">
      <g>
        <g>
          <path class="cls-10" d="M8.4,80.1h141.3l-9-32-19.8-24.2s-34.6-9.1-35.1-9.4-30.9-.6-31.4,0-17.7,13.8-17.7,13.8l-21.1,25.4-9.8,23.8,2.6,2.6Z"/>
          <path class="cls-3" d="M20.4,134.4s0,0,0,0c.3.4.7.7,1,1.1.9.8,1.9,1.6,2.9,2.4.2.2.3.3.5.4,0,0,0,0,0,0,.5.4,1.1.8,1.6,1.2,1.2.9,2.4,1.8,3.6,2.7,2.3,1.7,4.7,3.4,7.1,5.1,4.1,2.8,8.4,5.4,13,7.5.4.2.9.4,1.3.6,0,0,0,0,.6.3.2,0,.4.2.5.2,1.3.5,2.6,1,3.9,1.4,2.4.8,4.9,1.5,7.5,2,1.5.3,3,.6,4.5.9,0,0,.2,0,.4,0,.4,0,1,.1,1.2.2,2.6.3,5.1.5,7.7.5,2.8,0,5.6.1,8.3,0,.4,0,.8,0,1.3,0,.2,0,.5,0,.6-.1,1.2-.4,2.5-.6,3.7-1,2.5-.8,4.9-1.7,7.3-2.5,1-.4,2.1-.7,3.1-1.1.1,0,1.7-.8,2.1-1,4.9-2.4,9.5-5.4,14.2-8.3,2.4-1.5,4.7-3,7-4.6,1.1-.8,2.2-1.6,3.3-2.4,0,0,0,0,.1,0,.4-.3.8-.6,1.2-1,3.5-2.9,7-5.8,10.6-8.6-2-.7-4-1.3-6.1-1.8-4.6-1.2-9.3-2.3-14-3.1-4.8-.8-9.8-1.3-14.7-1.7-8.5-.6-16.9,0-25.3,1.5-4.5.8-9,1.9-13.3,3.6-1,.4-2.1.9-3.3.6-1.3-.3-2.6-.5-3.9-.6-4.6-.4-9.3-1-13.9-1.2-7.7-.4-15.4,0-23.1.8-1.4.1-4.9.5-6.8,1,1.5,1.5,2.8,3.2,4.2,5Z"/>
          <path class="cls-22" d="M19.6,119.3c2.2-1.8,5.6-2.4,7.3.4,0,0-.6.1-.6.1,1-7.3,7.7-11.8,14.9-11-6.8.7-12.5,4.2-14.2,11.1,0,0-.2.8-.2.8-1.6-3.2-4.4-3-7.2-1.3h0Z"/>
          <path class="cls-15" d="M117,116.6c1-.8,2.5-.8,3.7-.4.4.2.8.4,1.1.6l-.4.2c.4-1.9,1.5-3.6,3.1-4.7,1.6-1,3.7-1.1,5.5-.6-3.9-.7-7.1,1.5-8.1,5.4,0,0,0,.4,0,.4-1.3-1.1-3.2-1.7-4.8-.9h0Z"/>
          <path class="cls-11" d="M25.9,137c1.8,1.5,3.5,3.1,5.3,4.6.9.8,1.7,1.5,2.6,2.3.5.4,1,.8,1.5,1.2,0,0,.2.1.3.3.3.2.8.6.9.6.4.3.8.6,1.2.8.8.6,1.6,1.1,2.4,1.6,1.6,1.1,3.3,2.1,4.9,3.1,1.8,1.1,3.6,2.1,5.5,3,.8.4,1.7.8,2.5,1.2.2,0,.4.2.6.3,0,0,0,0,.1,0,3.9,1.3,7.8,2.7,11.8,3.6,1.8.4,3.5.7,5.3,1-.3,0,1,.1,1.7.2,1,0,1.9.2,2.9.2,4,.2,7.9.2,11.9-.2.1,0,.6,0,1-.1,0,0,.2,0,.2,0,.9-.2,1.9-.3,2.8-.5,2-.4,3.9-.9,5.8-1.4,2.1-.6,4.1-1.3,6.1-2.1.5-.2.9-.4,1.4-.5,0,0,0,0,0,0-25.8-37.9-77.3-29.5-88.7-27.1,3.4,2.5,6.6,5.1,9.8,7.8Z"/>
          <polygon class="cls-11" points="31.8 127.8 31.8 121.2 38.6 114.3 45.5 121.3 45.5 127.7 31.8 127.8"/>
          <g>
            <rect class="cls-1" x="77.2" y="121.5" width="1.5" height="5.2"/>
            <path class="cls-1" d="M77.9,113.2c-7.7,10.6,0,11.3,0,11.3,0,0,7.7-.7,0-11.3Z"/>
          </g>
          <g>
            <rect class="cls-1" x="104.5" y="120.8" width=".9" height="3.3"/>
            <path class="cls-1" d="M105,115.6c-4.8,6.7,0,7.1,0,7.1,0,0,4.8-.5,0-7.1Z"/>
          </g>
          <path class="cls-3" d="M79,162.7c-19.3,0-37.8-7.2-52-20.2-14.1-13-22.9-30.6-24.6-49.6l5.1-.5c3.4,37.2,34.2,65.2,71.5,65.2s68.1-28,71.5-65.2l5.1.5c-1.8,19-10.5,36.6-24.6,49.6-14.2,13-32.7,20.2-52,20.2Z"/>
          <path class="cls-21" d="M156.9,80.1C156.9,37.1,122.1,2.3,79.2,2.3S1.5,37.1,1.5,80.1h44.3l-30.1-10.4,31.9,3.3-27.6-17.6,30.7,10.9-23.3-23.4,28.4,17.8-17.3-27.8,23,23-10.7-31,17.2,27.7-3.3-32.3,10.9,30.9,3.9-32.7,3.6,33,10.6-31.3-3.4,32.5,17.2-27.2-10.6,30.9,23-23.4-17.2,27.9,27.8-17.8-23.1,23.4,31-11-27.9,17.6,32.2-3.7-30.6,10.9h45.1Z"/>
          <path class="cls-20" d="M61.5,81.9c-.2.3-.6.6-.9.6-2.3.1-4.5.2-6.8.2-2.4,0-4.9-.3-7.2.4-.5.1-.9.5-1.4.7,0,0,0,.2.1.3.3.1.7.3,1,.3,2.7.3,5.3.5,8,.8.9,0,1.9.3,2.6,1.1-.7.2-1.4.4-2.1.4-2.4,0-4.7-.2-7.1-.2-2.5,0-5,.3-7.5.5-.3,0-.6.4-.9.6.4.2.7.6,1.1.7,1.2.2,2.4.2,3.6.3,1.8.1,3.7.2,5.5.3.4,0,.7.2,1.1.3,0,.1,0,.2,0,.4-.8.1-1.7.3-2.5.3-9.5.2-19,.4-28.5.6-1.1,0-2.2.2-3.3.3-.1,0-.3,0-.4,0-1.1-.4-2.2,0-3.2.2-.3,0-.7.2-1,.4,0,.1,0,.3,0,.4.8.1,1.5.3,2.3.3.8,0,1.6,0,2.5,0,1.5,0,2.9.1,4.4.2.4,0,.7-.1,1.1,0,.7,0,1.5.3,2.2.3,3.4,0,6.7.1,10.1.2,6.4,0,12.9,0,19.3,0,1.2,0,2.5.1,3.7.4.5,0,.9.6,1.3.9-.5.2-.9.5-1.4.6-1.6.3-3.2.4-4.7.6-4,.5-7.9,1-11.9,1.5-1.2.2-2.3.5-3.5.9-.3,0-.4.4-.7.6.3.1.5.4.8.4,1.9.2,3.9.4,5.8.4,4.5.1,9,.2,13.5.3.5,0,1.1,0,1.1.6,0,.5-.3.9-.9,1-1.2.1-2.3.4-3.5.5-1.8.1-3.7.1-5.5.2-.4,0-.8.2-1.2.3,0,0,0,.2,0,.3.4.2.8.6,1.2.6,2.4.4,4.7.8,7.1,1,5.1.4,10.2.6,15.3.9,1.4,0,2.9.4,4.3.7,0,.2,0,.3,0,.5-6.7,1.1-13.5.6-20.2,1.3.4.1.8.3,1.3.3,3.5.2,7,.5,10.5.5,8.9,0,17.8-.1,26.7-.3,2.3,0,4.6-.4,6.9-.7.3,0,.6-.3,1.1-.6-.5-.2-.7-.4-1-.5-2.7-.4-5.4-.7-8.1-1-2.5-.3-5.1-.4-7.6-.7-2.9-.4-5.9-.8-8.8-1.4-1.4-.3-2.8-.9-4.1-1.4-.3,0-.4-.5-.6-.7.3-.2.6-.4.9-.5.9,0,1.9,0,2.9,0,3.9.1,7.9.4,11.8.4,8.6,0,17.2-.3,25.7-.4,1.1,0,2.2.1,3.3.2-3.2.9-6.6.2-9.6,1.7.5.2,1,.2,1.4.2,7.1,0,14.1,0,21.1-.7.5,0,1-.3,1.5-.4.2,0,.4-.2.6-.2,1.3.2,1.9-.6,2.5-1.4-.2-.2-.4-.5-.6-.5-1.3-.2-2.7-.5-4.1-.6-2.7,0-5.4,0-8.1,0-6.4-.1-12.7-.4-19.1-.5-3.6,0-7.2,0-10.8,0-.4,0-.9-.2-1.3-.3,0-.1,0-.2,0-.4.6-.3,1.2-.8,1.9-.9,2.3-.4,4.6-.9,7-1,6.6-.4,13.2-.6,19.8-.9,2-.1,4.1-.5,6.1-.7.3,0,.5-.3.8-.5,0,0,0-.2,0-.3-.3-.1-.7-.3-1-.3-1.3-.1-2.6-.2-3.9-.3-4.8-.2-9.6-.2-14.4-.5-7-.4-14,0-20.9-.8-.9-.1-1.8-.3-2.8-.9.5-.3.7-.6,1.1-.7,1.1-.3,2.3-.7,3.5-.7,4-.2,8.1-.3,12.1-.5,5.5-.2,10.9-.4,16.4-.6.6,0,1.1-.2,1.9-.3-.4-.3-.6-.5-.8-.5-1-.2-2-.4-3.1-.6-2.4-.4-4.8-.7-7.2-1.1-.4,0-.7-.5-1.1-.7.4-.3.7-.7,1.1-.7,1.6-.3,3.2-.5,4.7-.5,8.7-.1,17.4-.1,26.1-.3,2.6,0,5.2-.5,7.8-.7.2,0,.5-.3.7-.4-.1,0-.3-.2-.4-.3H61.5Z"/>
        </g>
        <g>
          <g>
            <path class="cls-7" d="M191.8,48.4h13.4v.5c-.7.5-1.3.4-1.4,1.4,0,.2.6,1.6.7,1.8l18.5,40c0,.3.5,1.2.7,1.7.3.4.9.6,1.6.6v.9h-12.3v-.8l1.1-.7-5-11.5h-21l-4.1,9.5c-.3,1-.4.6-.4,1.7l1,.7v1.1h-11v-.9c.3,0,1.1-.3,1.5-.8.3-.4.5-1,.7-1.5l16.5-39.5s.7-1.8.7-1.9c.2-.8-.2-1-1.3-1.4v-.8ZM191.1,75.1h14.5l-7.5-16.4-7,16.4Z"/>
            <path class="cls-6" d="M246.2,48.4h13.4v.5c-.7.5-1.3.4-1.4,1.4,0,.2.6,1.6.7,1.8l18.5,40c0,.3.5,1.2.7,1.7.3.4.9.6,1.6.6v.9h-12.3v-.8l1.1-.7-5-11.5h-21l-4.1,9.5c-.3,1-.4.6-.4,1.7l1,.7v1.1h-11v-.9c.3,0,1.1-.3,1.5-.8.3-.4.5-1,.7-1.5l16.5-39.5s.7-1.8.7-1.9c.2-.8-.2-1-1.3-1.4v-.8ZM245.4,75.1h14.5l-7.5-16.4-7,16.4Z"/>
            <path class="cls-8" d="M282.5,48.3h28.5c4.8,0,12.6.3,16.4,7.5,2,3.6,2,9.5-.4,13.6-2.6,4.1-6.8,5.6-10.3,6.4l11.4,16.7c1.4,2,.9,1.5,2.8,2.2v.7h-13.8v-.7l1-.6q0-.2-.2-.6l-.4-.7-11.8-17.4h-12.5v16.4c0,0,0,1.5,0,1.7.5.7.8,1,1.7,1v.8h-12.4v-.8c.7-.2,1.1.2,1.7-.7.1-.2,0-1.7,0-1.9v-39.5c-.1-.5,0-1.5,0-2.1-.4-1.3-.7-.8-1.7-1.1v-.8ZM293.1,56.1v11.6h16.4c1.7,0,7.7.7,9.9-3.3.9-1.5.9-3.9-.1-5.5-1.9-3.3-8.8-2.8-10.3-2.8h-15.9Z"/>
            <path class="cls-19" d="M326.9,48.3h13.5v.9c-.1,0-.9.3-.9.3v.6l11.9,17.1,11.2-16.1c.4-.8.6-.8.6-1.6l-1-.5v-.7h12.6v.9c-1.8.7-1.9.7-3.4,2.7l-15.5,23v17.1c0,.2,0,1.4,0,1.7.3.9.6.6,1.4.9v.7h-11.8v-.7c.5,0,1-.2,1.4-.9.1-.3,0-1.5.1-1.7v-16.1l-17.1-24.6c-1.5-2.1-.9-1.5-3-2.2v-.9Z"/>
            <path class="cls-16" d="M384.6,48.4h13.4v.5c-.7.5-1.3.4-1.4,1.4,0,.2.6,1.6.7,1.8l18.5,40c0,.3.5,1.2.7,1.7.3.4.9.6,1.6.6v.9h-12.3v-.8l1.1-.7-5-11.5h-21l-4.1,9.5c-.3,1-.4.6-.4,1.7l1,.7v1.1h-11v-.9c.3,0,1.1-.3,1.5-.8.3-.4.5-1,.7-1.5l16.5-39.5s.7-1.8.7-1.9c.2-.8-.2-1-1.3-1.4v-.8ZM383.9,75.1h14.5l-7.5-16.4-7,16.4Z"/>
            <path class="cls-9" d="M459.9,70.5c4.4,2.5,6.8,3.8,7.6,8.9.6,3,.2,7.4-2.4,10.6-4,5.1-10.1,5.3-13.7,5.4h-30.4c0,0,0-.8,0-.8.6,0,1.1-.4,1.6-1,.1-.1,0-1.4,0-1.6v-39.7c0-.3,0-1.3-.2-1.7-.5-.7-.9-.9-1.6-1.1v-1h30.4c3.2,0,10.4.1,13.6,6,1.6,3,1.6,8.7,0,11.5-1.1,2-2.5,3.1-4.9,4.6ZM431.4,56v10.9h16.3c1.3,0,7.4.4,8.9-2.5.6-1.2,1-4.3.2-5.9-1.6-3-6.6-2.5-8.8-2.5h-16.7ZM431.5,87.2h16.7c1.7,0,7.8.3,9.8-3.1,1.1-1.9,1.1-4.7.1-6.5-1.9-3.5-10-3-10.3-3h-16.4v12.7Z"/>
            <path class="cls-17" d="M470.4,48.3h12.2l-.2.8c-.6,0-.9.1-1.3.8-.2.4-.2,1.2-.2,1.6v15.1h27.9v-15.1c0-.1-.1-1.5-.2-1.6-.6-.8-.9-.5-1.6-.8v-.9h12.1v.9c-.8.2-1-.1-1.4.9-.1.3,0,1.4,0,1.7v39.5c0,2,0,2.1,2.1,3.1v.9h-12.2v-1.1l1.4-.9v-18.6h-27.8v16.8c0,.5,0,1.4.2,1.8,0,1.1.5.8,1.5,1.1v.8h-11.9v-.9c.4,0,1-.2,1.4-.9.2-.4.2-1.3.2-1.7v-39.5c0-.5-.2-1.6-.4-2.1-.4-1-.9-.9-1.8-1.3v-.7Z"/>
            <path class="cls-4" d="M625.2,52.2l.8.4-6,10.5-.8-.2c0-1.1.5-1.2-.6-2.4-.3-.5-1-1.1-2.3-1.9-5.6-3.3-16.9-3.6-22.6-.7-5.4,2.8-7.5,6.9-8.1,11.8-.4,3.5.6,10.2,5.2,14.3,5.6,4.9,15.3,5,21,3.3,1.7-.5,3.4-1.1,6.2-3.3v-5.3h-11.6c-.6.2-.9,0-1.2.9v.8c-.1,0-.9-.1-.9-.1v-11.2h.7c.3.5.2,1,1,1.4h21.7v.9h-.5c-.9.5-.7,1.5-.7,2.2v12.8c0,.1,0,.7.2,1l1.1.6v.7c-2.6,1.6-3.1,1.9-3.8,2.2l-1.2.4c-11.3,5.2-25.9,7.1-36.1.2-7.7-5.3-10-12.9-10-19.6,0-6.9,2-13.9,10.3-19.3,9.8-6.4,24.3-5.4,34.4-.7l.9.4c.3.1,1.3.6,1.4.6.6,0,.9-.2,1.4-.8Z"/>
            <path class="cls-18" d="M533.3,95.4c0,.1,0,.2,0,.2,0,0,0-.1,0-.2Z"/>
            <g>
              <path class="cls-5" d="M542.2,95.8s1.5-15.8,8-20.5c0,0-6.5,4-8.6,12.1.3,2.1.1,4.8-1.2,8,.6.2,1.2.3,1.8.4Z"/>
              <path class="cls-2" d="M540.4,95.4h0s0-.2,0-.6c0,.3,0,.5,0,.6Z"/>
              <path class="cls-13" d="M569.2,57.2c-6.4-8-18.2-9.8-24.6-9-3.6.4-6.2,1.1-9.4,2.7-8.3,4.2-11.5,10.3-12.5,18-.6,5.4.9,15.3,7.3,21.1,3,2.7,6.6,4.4,10.4,5.4-1.2-8.9-5.7-11.1-5.7-11.1,4.1,4.2,3.9,8.9,3.9,8.9-4,.9-8.7-1.9-10.1-7-1.4-5.1-3.6-7.4-3.6-7.4,8.4-1.3,12.6.9,14.6,3.5,0-2,.3-4,.9-5.4,3.2-8.1,9.4-13,31.3-13,0,0-3.5,2-6.1,10.2-2.6,8.1-2.8,21-23.5,21.8,5.6,1.2,11.3.8,15.6-.5,7.9-2.4,13.1-7.6,15.4-15.3,2-6.7,1.1-16.4-4-22.8Z"/>
            </g>
          </g>
          <text class="cls-12" transform="translate(235.3 120.7)"><tspan class="cls-23" x="0" y="0">ENRICHED WITH NUTRIENT</tspan><tspan class="cls-24" x="317.4" y="0">S</tspan></text>
          <text class="cls-14" transform="translate(627.9 53)"><tspan x="0" y="0">TM</tspan></text>
        </g>
      </g>
    </g>
  </g>
</svg>