<?xml version="1.0" encoding="UTF-8"?>
<svg xmlns="http://www.w3.org/2000/svg" version="1.1" viewBox="0 0 100 100">
  <!-- Generator: Adobe Illustrator 28.7.1, SVG Export Plug-In . SVG Version: 1.2.0 Build 142)  -->
  <g>
    <g id="Isolation_Mode">
      <path d="M85.6,10.7H14.4C6.5,10.7,0,17.2,0,25.2v49.7c0,8,6.5,14.4,14.4,14.4h71.1c8,0,14.4-6.5,14.4-14.4V25.2c0-8-6.5-14.4-14.4-14.4ZM85.6,17.6c.6,0,1.2,0,1.7.2l-30,34c-1.8,2.1-4.5,3.3-7.3,3.3s-5.4-1.2-7.3-3.3L12.7,17.8c.6-.1,1.1-.2,1.7-.2h71.1ZM93.1,74.8c0,4.2-3.4,7.5-7.5,7.5H14.4c-4.2,0-7.5-3.4-7.5-7.5V25.2c0-1,.2-2,.6-2.9l30.1,34.1c3.1,3.6,7.7,5.6,12.4,5.6s9.3-2,12.4-5.6l30.1-34.1c.4.9.6,1.8.6,2.9v49.7Z"/>
    </g>
  </g>
</svg>