<?xml version="1.0" encoding="UTF-8"?>
<svg xmlns="http://www.w3.org/2000/svg" version="1.1" viewBox="0 0 100 100">
  <!-- Generator: Adobe Illustrator 28.7.1, SVG Export Plug-In . SVG Version: 1.2.0 Build 142)  -->
  <g>
    <g id="Isolation_Mode">
      <g>
        <path d="M70.2,0H29.8c-8.2,0-14.8,6.6-14.8,14.8v70.4c0,8.2,6.6,14.8,14.8,14.8h40.4c8.2,0,14.8-6.6,14.8-14.8V14.8c0-8.2-6.6-14.8-14.8-14.8ZM29.8,6.8h40.4c4.4,0,8,3.6,8,8v56.4H21.8V14.8c0-4.4,3.6-8,8-8ZM70.2,93.2H29.8c-4.4,0-8-3.6-8-8v-7.2h56.3v7.2c0,4.4-3.6,8-8,8Z"/>
        <path d="M49.1,16.7c1.5,0,2.7-1.2,2.7-2.7s-1.2-2.7-2.7-2.7-2.7,1.2-2.7,2.7,1.2,2.7,2.7,2.7Z"/>
        <path d="M49.1,82.3c-1.5,0-2.7,1.2-2.7,2.7s1.2,2.7,2.7,2.7,2.7-1.2,2.7-2.7-1.2-2.7-2.7-2.7Z"/>
      </g>
    </g>
  </g>
</svg>